{
  "accessors": [
    {
      "bufferView": 2,
      "componentType": 5126,
      "count": 517,
      "max": [
        0.4903481900691986,
        1.332974910736084,
        0.5964404940605164
      ],
      "min": [
        -0.4903481900691986,
        -1.332974910736084,
        -0.600824773311615
      ],
      "type": "VEC3"
    },
    {
      "bufferView": 2,
      "byteOffset": 6204,
      "componentType": 5126,
      "count": 517,
      "max": [
        0.0015564896166324615,
        1.0,
        1.0
      ],
      "min": [
        -0.8261298537254333,
        -1.0,
        -0.9999972581863403
      ],
      "type": "VEC3"
    },
    {
      "bufferView": 1,
      "componentType": 5126,
      "count": 517,
      "max": [
        0.76710444688797,
        0.86646968126297
      ],
      "min": [
        0.0019468191312626004,
        0.002411526395007968
      ],
      "type": "VEC2"
    },
    {
      "bufferView": 0,
      "componentType": 5125,
      "count": 1431,
      "type": "SCALAR"
    },
    {
      "bufferView": 2,
      "byteOffset": 12408,
      "componentType": 5126,
      "count": 804,
      "max": [
        0.4903481900691986,
        1.332974910736084,
        0.5964404940605164
      ],
      "min": [
        -0.4903481900691986,
        -1.332974910736084,
        -0.600824773311615
      ],
      "type": "VEC3"
    },
    {
      "bufferView": 2,
      "byteOffset": 22056,
      "componentType": 5126,
      "count": 804,
      "max": [
        0.9994475841522217,
        0.7890150547027588,
        0.997302770614624
      ],
      "min": [
        -0.9999195337295532,
        -0.17692016065120697,
        -0.9972734451293945
      ],
      "type": "VEC3"
    },
    {
      "bufferView": 3,
      "componentType": 5126,
      "count": 804,
      "max": [
        0.9972734451293945,
        1.0,
        0.9740514159202576,
        1.0
      ],
      "min": [
        -0.9972734451293945,
        -1.0,
        -0.9999954700469971,
        -1.0
      ],
      "type": "VEC4"
    },
    {
      "bufferView": 1,
      "byteOffset": 4136,
      "componentType": 5126,
      "count": 804,
      "max": [
        0.9998444318771362,
        0.9914237260818481
      ],
      "min": [
        0.0,
        0.0
      ],
      "type": "VEC2"
    },
    {
      "bufferView": 0,
      "byteOffset": 5724,
      "componentType": 5125,
      "count": 2139,
      "type": "SCALAR"
    },
    {
      "bufferView": 2,
      "byteOffset": 31704,
      "componentType": 5126,
      "count": 294,
      "max": [
        0.49034807085990906,
        1.3111214637756348,
        0.5825602412223816
      ],
      "min": [
        -0.4726717174053192,
        -1.3111214637756348,
        -0.6008247137069702
      ],
      "type": "VEC3"
    },
    {
      "bufferView": 2,
      "byteOffset": 35232,
      "componentType": 5126,
      "count": 294,
      "max": [
        0.09604308754205704,
        0.9999998807907104,
        0.9999366998672485
      ],
      "min": [
        -0.6878367066383362,
        -0.9999998807907104,
        -0.9999969005584717
      ],
      "type": "VEC3"
    },
    {
      "bufferView": 1,
      "byteOffset": 10568,
      "componentType": 5126,
      "count": 294,
      "max": [
        0.9868667721748352,
        0.9708404541015625
      ],
      "min": [
        0.0,
        0.0
      ],
      "type": "VEC2"
    },
    {
      "bufferView": 0,
      "byteOffset": 14280,
      "componentType": 5125,
      "count": 756,
      "type": "SCALAR"
    }
  ],
  "asset": {
    "extras": {
      "author": "blue man group (https://sketchfab.com/bloobloo)",
      "license": "CC-BY-4.0 (http://creativecommons.org/licenses/by/4.0/)",
      "source": "https://sketchfab.com/3d-models/future-bench-03e79f17bcd742e0927171d1c71fba20",
      "title": "Future Bench"
    },
    "generator": "Sketchfab-12.59.0",
    "version": "2.0"
  },
  "bufferViews": [
    {
      "buffer": 0,
      "byteLength": 17304,
      "name": "floatBufferViews",
      "target": 34963
    },
    {
      "buffer": 0,
      "byteLength": 12920,
      "byteOffset": 17304,
      "byteStride": 8,
      "name": "floatBufferViews",
      "target": 34962
    },
    {
      "buffer": 0,
      "byteLength": 38760,
      "byteOffset": 30224,
      "byteStride": 12,
      "name": "floatBufferViews",
      "target": 34962
    },
    {
      "buffer": 0,
      "byteLength": 12864,
      "byteOffset": 68984,
      "byteStride": 16,
      "name": "floatBufferViews",
      "target": 34962
    }
  ],
  "buffers": [
    {
      "byteLength": 81848,
      "uri": "scene.bin"
    }
  ],
  "images": [
    {
      "uri": "textures/Material.124_normal.jpeg"
    }
  ],
  "materials": [
    {
      "doubleSided": true,
      "name": "Material.125",
      "pbrMetallicRoughness": {
        "baseColorFactor": [
          0.231737,
          0.231737,
          0.231737,
          1.0
        ],
        "metallicFactor": 0.0,
        "roughnessFactor": 0.359091
      }
    },
    {
      "doubleSided": true,
      "name": "Material.124",
      "normalTexture": {
        "index": 0,
        "scale": 0.0
      },
      "pbrMetallicRoughness": {
        "metallicFactor": 0.0,
        "roughnessFactor": 0.254545
      }
    },
    {
      "doubleSided": true,
      "emissiveFactor": [
        1.0,
        1.0,
        1.0
      ],
      "name": "Material.123",
      "pbrMetallicRoughness": {
        "metallicFactor": 0.0
      }
    }
  ],
  "meshes": [
    {
      "name": "Object_0",
      "primitives": [
        {
          "attributes": {
            "NORMAL": 1,
            "POSITION": 0,
            "TEXCOORD_0": 2
          },
          "indices": 3,
          "material": 0,
          "mode": 4
        }
      ]
    },
    {
      "name": "Object_1",
      "primitives": [
        {
          "attributes": {
            "NORMAL": 5,
            "POSITION": 4,
            "TANGENT": 6,
            "TEXCOORD_0": 7
          },
          "indices": 8,
          "material": 1,
          "mode": 4
        }
      ]
    },
    {
      "name": "Object_2",
      "primitives": [
        {
          "attributes": {
            "NORMAL": 10,
            "POSITION": 9,
            "TEXCOORD_0": 11
          },
          "indices": 12,
          "material": 2,
          "mode": 4
        }
      ]
    }
  ],
  "nodes": [
    {
      "children": [
        1
      ],
      "matrix": [
        1.0,
        -1.6081226229577292e-16,
        -3.5707495248565405e-32,
        0.0,
        0.0,
        2.220446049250313e-16,
        -1.0,
        0.0,
        1.6081226229577292e-16,
        1.0,
        2.220446049250313e-16,
        0.0,
        -4.548455123654094e-08,
        -5.6318336660865365e-09,
        -6.007302744137633e-08,
        1.0
      ],
      "name": "Sketchfab_model"
    },
    {
      "children": [
        2
      ],
      "name": "root"
    },
    {
      "children": [
        3
      ],
      "matrix": [
        1.0,
        0.0,
        0.0,
        0.0,
        0.0,
        2.220446049250313e-16,
        1.0,
        0.0,
        0.0,
        -1.0,
        2.220446049250313e-16,
        0.0,
        0.0,
        0.0,
        0.0,
        1.0
      ],
      "name": "GLTF_SceneRootNode"
    },
    {
      "children": [
        4,
        5,
        6
      ],
      "matrix": [
        -1.761319853085527e-07,
        -1.601199072562847e-08,
        -0.5372735261916823,
        0.0,
        0.5372735261916805,
        -4.803599842259674e-08,
        -1.7613198387696844e-07,
        0.0,
        -4.8035993173454476e-08,
        -0.5372735261917091,
        1.6012006473055268e-08,
        0.0,
        -0.013405799865722656,
        0.5751093626022339,
        0.4536457657814026,
        1.0
      ],
      "name": "Bench.001_0"
    },
    {
      "mesh": 0,
      "name": "Object_4"
    },
    {
      "mesh": 1,
      "name": "Object_5"
    },
    {
      "mesh": 2,
      "name": "Object_6"
    }
  ],
  "samplers": [
    {
      "magFilter": 9729,
      "minFilter": 9987,
      "wrapS": 10497,
      "wrapT": 10497
    }
  ],
  "scene": 0,
  "scenes": [
    {
      "name": "Sketchfab_Scene",
      "nodes": [
        0
      ]
    }
  ],
  "textures": [
    {
      "sampler": 0,
      "source": 0
    }
  ]
}
